<?xml version="1.0" encoding="UTF-8"?>
<svg width="91px" height="28px" viewBox="0 0 91 28" version="1.1" xmlns="http://www.w3.org/2000/svg" xmlns:xlink="http://www.w3.org/1999/xlink">
    <title>VIVA-TCM</title>
    <g id="页面-1" stroke="none" stroke-width="1" fill="none" fill-rule="evenodd">
        <g id="首页默认" transform="translate(-149.000000, -15.000000)">
            <g id="Group" transform="translate(36.000000, 12.000000)">
                <g id="VIVA-TCM" transform="translate(113.000000, 3.000000)">
                    <rect id="Rectangle" fill-opacity="0" fill="#D8D8D8" x="0" y="0" width="91" height="28"></rect>
                    <polygon id="Path" fill="#FFFFFF" fill-rule="nonzero" opacity="0.8" points="3.99804688 8.18359375 7.90429688 16.3476562 11.5273438 8.18359375 13.3925781 8.18359375 8.0703125 20.1855469 6.71289062 20.1855469 1 8.18359375"></polygon>
                    <polygon id="Path" fill="#FFFFFF" fill-rule="nonzero" opacity="0.8" points="14.9648438 8.18359375 17.8652344 8.18359375 17.8652344 20 14.9648438 20"></polygon>
                    <polygon id="Path" fill="#FFFFFF" fill-rule="nonzero" opacity="0.8" points="22.4453125 8.18359375 26.3515625 16.3476562 29.9746094 8.18359375 31.8398438 8.18359375 26.5175781 20.1855469 25.1601562 20.1855469 19.4472656 8.18359375"></polygon>
                    <path d="M37.3085938,7.91992188 L42.8457031,20 L39.8769531,20 L38.4023438,16.7675781 L33.8125,16.7675781 L32.2597656,20 L30.2871094,20 L36.0585938,7.91992188 L37.3085938,7.91992188 Z M34.3496094,15.6640625 L37.9140625,15.6640625 L36.1660156,11.8457031 L34.3496094,15.6640625 Z" id="Shape" fill="#FFFFFF" fill-rule="nonzero" opacity="0.8"></path>
                    <polygon id="Path" fill="#FFFFFF" fill-rule="nonzero" opacity="0.8" points="48.2460938 15.0488281 48.2460938 16.4550781 43.265625 16.4550781 43.265625 15.0488281"></polygon>
                    <polygon id="Path" fill="#FFFFFF" fill-rule="nonzero" opacity="0.8" points="60.3554688 8.18359375 60.3554688 9.1796875 56.2636719 9.1796875 56.2636719 20 53.3730469 20 53.3730469 9.1796875 49.28125 9.1796875 49.28125 8.18359375"></polygon>
                    <path d="M65.1601562,14.0820312 C65.1601562,14.8502604 65.2757161,15.5273438 65.5068359,16.1132812 C65.7379557,16.6992188 66.0455729,17.1907552 66.4296875,17.5878906 C66.8138021,17.985026 67.2548828,18.2861328 67.7529297,18.4912109 C68.2509766,18.6962891 68.7701823,18.7988281 69.3105469,18.7988281 C69.7272135,18.7988281 70.1145833,18.7272135 70.4726562,18.5839844 C70.8307292,18.4407552 71.164388,18.2486979 71.4736328,18.0078125 C71.7828776,17.7669271 72.0742188,17.4853516 72.3476562,17.1630859 C72.6210938,16.8408203 72.8815104,16.5039062 73.1289062,16.1523438 L74.3398438,17.0410156 C74.0859375,17.4641927 73.7734375,17.8694661 73.4023438,18.2568359 C73.03125,18.6442057 72.6162109,18.9876302 72.1572266,19.2871094 C71.6982422,19.5865885 71.1985677,19.8242188 70.6582031,20 C70.1178385,20.1757812 69.5449219,20.2636719 68.9394531,20.2636719 C67.9238281,20.2636719 66.9879557,20.1155599 66.1318359,19.8193359 C65.2757161,19.523112 64.5367839,19.1048177 63.9150391,18.5644531 C63.2932943,18.0240885 62.8082682,17.3746745 62.4599609,16.6162109 C62.1116536,15.8577474 61.9375,15.0130208 61.9375,14.0820312 C61.9375,13.1835938 62.1035156,12.3551432 62.4355469,11.5966797 C62.7675781,10.8382161 63.2330729,10.1839193 63.8320312,9.63378906 C64.4309896,9.08365885 65.1503906,8.65559896 65.9902344,8.34960938 C66.8300781,8.04361979 67.7578125,7.890625 68.7734375,7.890625 C69.4570312,7.890625 70.0820312,7.9703776 70.6484375,8.12988281 C71.2148438,8.28938802 71.7291667,8.51074219 72.1914062,8.79394531 C72.6536458,9.07714844 73.0670573,9.4140625 73.4316406,9.8046875 C73.796224,10.1953125 74.1152344,10.625 74.3886719,11.09375 L73.1582031,11.953125 C72.9108073,11.6015625 72.640625,11.2679036 72.3476562,10.9521484 C72.0546875,10.6363932 71.7438151,10.3597005 71.4150391,10.1220703 C71.086263,9.8844401 70.7379557,9.69726562 70.3701172,9.56054688 C70.0022786,9.42382812 69.6197917,9.35546875 69.2226562,9.35546875 C68.6757812,9.35546875 68.1565755,9.45800781 67.6650391,9.66308594 C67.1735026,9.86816406 66.7421875,10.1692708 66.3710938,10.5664062 C66,10.9635417 65.7054036,11.4567057 65.4873047,12.0458984 C65.2692057,12.6350911 65.1601562,13.3138021 65.1601562,14.0820312 Z" id="Path" fill="#FFFFFF" fill-rule="nonzero" opacity="0.8"></path>
                    <polygon id="Path" fill="#FFFFFF" fill-rule="nonzero" opacity="0.8" points="76.7519531 8.18359375 79.5742188 8.18359375 83.65625 16.2597656 87.6894531 8.18359375 90.453125 8.18359375 90.453125 20 87.5527344 20 87.5527344 12.2949219 83.6953125 20 82.5722656 20 78.5878906 12.2070312 78.5878906 20 76.7519531 20"></polygon>
                </g>
            </g>
        </g>
    </g>
</svg>